HIERARCHY
ROOT Hips
{
	OFFSET	0.00	0.00	0.00
	CHANNELS 6 Xposition Yposition Zposition Zrotation Xrotation Yrotation
	JOINT Chest
	{
		OFFSET	0.00	6.28	0.00
		CHANNELS 3 Zrotation Xrotation Yrotation
		JOINT Neck
		{
			OFFSET	0.00	14.30	0.00
			CHANNELS 3 Zrotation Xrotation Yrotation
			JOINT Head
			{
				OFFSET	0.00	2.64	0.00
				CHANNELS 3 Zrotation Xrotation Yrotation
				End Site
				{
					OFFSET	0.00	4.50	0.00
				}
			}
		}
		JOINT LeftCollar
		{
			OFFSET	1.12	11.36	1.87
			CHANNELS 3 Zrotation Xrotation Yrotation
			JOINT LeftUpArm
			{
				OFFSET	4.57	2.02	-1.82
				CHANNELS 3 Zrotation Xrotation Yrotation
				JOINT LeftLowArm
				{
					OFFSET	0.22	-10.35	-0.06
					CHANNELS 3 Zrotation Xrotation Yrotation
					JOINT LeftHand
					{
						OFFSET	0.09	-10.35	2.18
						CHANNELS 3 Zrotation Xrotation Yrotation
						End Site
						{
							OFFSET	0.13	-6.69	1.71
						}
					}
				}
			}
		}
		JOINT RightCollar
		{
			OFFSET	-1.12	11.36	1.87
			CHANNELS 3 Zrotation Xrotation Yrotation
			JOINT RightUpArm
			{
				OFFSET	-4.71	2.03	-1.82
				CHANNELS 3 Zrotation Xrotation Yrotation
				JOINT RightLowArm
				{
					OFFSET	-0.26	-10.43	-0.06
					CHANNELS 3 Zrotation Xrotation Yrotation
					JOINT RightHand
					{
						OFFSET	0.00	-10.26	2.18
						CHANNELS 3 Zrotation Xrotation Yrotation
						End Site
						{
							OFFSET	-0.14	-6.67	1.71
						}
					}
				}
			}
		}
	}
	JOINT LeftUpLeg
	{
		OFFSET	3.91	0.00	0.00
		CHANNELS 3 Zrotation Xrotation Yrotation
		JOINT LeftLowLeg
		{
			OFFSET	-0.44	-17.57	1.70
			CHANNELS 3 Zrotation Xrotation Yrotation
			JOINT LeftFoot
			{
				OFFSET	-0.04	-17.20	-1.48
				CHANNELS 3 Zrotation Xrotation Yrotation
				End Site
				{
					OFFSET	0.00	-3.93	5.23
				}
			}
		}
	}
	JOINT RightUpLeg
	{
		OFFSET	-3.91	0.00	0.00
		CHANNELS 3 Zrotation Xrotation Yrotation
		JOINT RightLowLeg
		{
			OFFSET	0.44	-17.62	1.70
			CHANNELS 3 Zrotation Xrotation Yrotation
			JOINT RightFoot
			{
				OFFSET	0.00	-17.14	-1.48
				CHANNELS 3 Zrotation Xrotation Yrotation
				End Site
				{
					OFFSET	0.00	-4.04	5.23
				}
			}
		}
	}
}
MOTION
Frames: 24
Frame Time: 0.04166667
-16.55	3.50	7.13	-4.43	-1.52	86.80	7.22	-6.43	-1.03	-6.13	9.92	-5.03	-3.88	2.88	-0.94	-14.82	-0.93	1.14	24.03	3.91	-33.13	0.76	1.72	0.52	-3.75	2.49	-0.80	5.24	11.02	0.70	-26.99	-8.73	25.90	0.17	-1.87	0.54	-5.38	2.45	-1.15	40.14	-55.65	36.01	179.93	80.22	156.80	-14.30	20.20	6.18	4.90	-9.02	-32.08	1.50	18.49	-1.82	-14.03	-17.11	2.28
-16.51	3.74	7.25	-4.35	-1.09	87.65	6.01	-5.80	-1.13	-5.82	9.32	-5.74	-3.66	2.53	-0.91	-15.13	0.29	1.61	24.83	2.70	-35.29	0.55	1.64	0.70	-4.39	2.50	-0.93	6.22	11.94	-0.07	-27.28	-9.72	29.65	0.19	-2.04	0.32	-3.10	2.42	-0.66	39.12	-56.07	36.44	-178.39	83.93	155.94	-14.76	16.60	5.54	5.37	-7.03	-31.94	1.42	15.41	-2.54	-13.61	-16.20	2.58
-15.91	4.04	7.35	-4.79	-0.90	88.49	5.45	-5.90	-1.20	-5.85	8.89	-6.37	-3.55	2.17	-0.91	-15.42	0.92	1.94	25.40	2.32	-38.32	0.39	1.47	0.90	-5.43	2.52	-1.15	6.70	12.62	-0.58	-27.38	-10.31	27.97	0.84	-1.33	-0.14	-3.36	2.42	-0.72	36.94	-55.62	36.22	-76.82	89.50	55.51	-14.74	13.57	4.79	6.63	-4.56	-32.34	1.38	10.12	-2.78	-13.23	-14.33	3.09
-15.45	4.38	7.43	-5.42	-0.76	89.11	5.19	-6.49	-1.22	-6.14	8.76	-6.76	-3.41	1.83	-0.89	-15.15	0.34	1.88	25.25	3.60	-41.25	0.34	1.25	1.05	-6.64	2.54	-1.41	6.30	12.22	-0.26	-26.92	-9.17	29.03	1.11	-1.11	-0.37	-2.80	2.41	-0.60	33.08	-53.85	34.45	-5.95	81.09	-13.78	-16.66	9.93	4.45	8.70	-1.00	-32.95	1.34	1.92	-2.58	-12.76	-10.90	3.93
-14.78	4.75	7.48	-6.12	-0.51	89.70	4.83	-7.19	-1.26	-6.37	8.67	-6.95	-3.31	1.68	-0.87	-14.62	-0.61	1.67	24.88	5.33	-42.75	0.22	0.97	1.25	-7.88	2.58	-1.67	5.57	11.21	0.33	-26.33	-7.16	36.30	0.64	-2.06	-0.32	0.75	2.40	0.16	27.68	-50.87	31.29	-4.24	69.74	-14.19	-18.95	5.99	3.83	11.53	3.69	-34.07	1.28	-9.20	-1.80	-12.17	-6.16	5.01
-14.08	5.09	7.50	-6.78	-0.20	90.23	4.29	-7.91	-1.12	-6.32	8.69	-7.15	-3.42	1.64	-0.90	-14.20	-1.11	1.37	24.91	6.73	-43.92	-0.11	0.42	1.49	-7.74	2.57	-1.64	5.14	10.21	0.68	-26.05	-5.46	38.02	1.00	-2.46	-0.61	1.24	2.40	0.27	21.68	-46.33	27.50	-3.72	55.52	-14.16	-21.98	2.03	2.96	11.28	3.89	-36.01	1.41	-9.21	-0.29	-11.36	-6.91	4.86
-12.98	5.33	7.48	-7.58	0.09	90.63	3.96	-9.09	-0.95	-6.39	9.08	-7.20	-3.54	1.65	-0.94	-13.63	-2.15	0.77	24.74	9.06	-44.92	-0.39	-0.24	1.74	-7.91	2.58	-1.68	4.31	8.59	1.55	-25.66	-2.84	39.66	1.28	-2.89	-0.81	1.40	2.40	0.30	15.82	-40.34	23.70	-3.41	38.16	-14.51	-25.07	-0.98	2.07	11.13	3.92	-38.13	1.52	-9.21	0.95	-10.74	-7.72	4.71
-12.58	5.44	7.43	-8.40	0.39	90.77	3.90	-10.51	-0.70	-6.67	9.65	-7.04	-3.61	1.54	-0.96	-12.94	-3.72	0.07	24.16	12.05	-45.45	-0.43	-0.66	1.82	-8.14	2.59	-1.72	3.01	6.50	2.77	-25.04	0.27	40.43	1.41	-3.13	-0.93	1.89	2.40	0.41	9.57	-32.66	13.36	-3.10	16.49	-9.61	-28.07	-2.21	1.73	10.78	4.11	-39.42	1.63	-9.21	2.15	-9.92	-8.52	4.59
-11.94	5.46	7.31	-8.94	0.80	90.42	3.90	-11.42	-0.12	-6.89	10.02	-6.88	-3.67	1.19	-1.00	-12.77	-4.53	-0.30	23.91	13.91	-45.50	-0.25	-0.79	1.75	-8.50	2.60	-1.80	2.24	5.42	3.38	-25.03	1.80	40.84	1.27	-3.14	-0.79	1.88	2.40	0.40	6.38	-21.54	4.82	-1.66	-9.20	-3.82	-28.42	-0.15	2.87	10.23	4.70	-40.05	1.71	-9.21	3.15	-9.12	-9.34	4.49
-11.08	5.35	7.14	-9.56	0.59	89.33	5.33	-12.57	0.76	-7.65	10.49	-6.21	-3.75	0.69	-1.05	-13.04	-5.88	-0.59	23.23	16.43	-44.57	0.00	-0.54	1.55	-8.36	2.59	-1.77	1.15	4.58	4.27	-25.24	2.97	40.96	0.86	-2.78	-0.46	1.88	2.40	0.40	6.83	-22.07	3.33	-1.44	-9.22	-1.32	-24.29	-7.22	-0.82	10.15	5.30	-39.91	1.78	-9.21	3.93	-8.31	-10.11	4.43
-10.52	5.18	6.96	-10.15	-0.04	87.54	7.15	-13.82	2.02	-8.04	11.16	-5.33	-3.88	0.11	-1.13	-12.36	-7.95	-1.02	21.49	19.87	-41.91	0.13	0.17	1.35	-7.64	2.57	-1.62	-0.33	1.99	5.96	-24.48	5.86	40.80	0.42	-1.84	-0.17	2.00	2.40	0.43	6.91	-21.51	7.79	-1.60	-9.22	-3.00	-20.95	-12.81	-2.84	10.31	6.13	-38.98	1.86	-9.20	4.80	-7.24	-10.64	4.43
-9.56	4.99	6.80	-10.91	-0.87	85.74	8.72	-15.42	3.10	-7.90	12.09	-4.59	-3.80	-0.65	-1.16	-10.87	-9.57	-1.53	19.11	22.92	-39.07	0.10	1.11	1.26	-7.19	2.56	-1.52	-1.34	-1.19	7.77	-23.27	9.33	41.11	-0.15	-0.58	0.18	1.71	2.40	0.37	6.66	-20.44	12.97	-1.75	-9.22	-4.70	-18.90	-15.34	-3.41	10.69	6.88	-37.97	1.91	-9.20	5.41	-6.29	-11.38	4.43
-8.60	4.86	6.66	-11.13	-1.16	84.67	8.97	-15.80	3.15	-7.44	12.20	-4.04	-3.37	-1.62	-1.08	-10.74	-9.22	-1.33	18.89	22.78	-37.00	-0.15	2.00	1.37	-7.41	2.56	-1.57	-0.70	-1.02	7.90	-23.44	8.47	40.14	-0.68	0.81	0.43	1.37	2.40	0.29	5.85	-18.97	14.93	-1.79	-9.21	-5.10	-15.81	-14.57	-2.63	10.46	8.10	-36.77	1.90	-9.20	5.18	-5.34	-12.04	4.45
-7.79	4.78	6.52	-11.08	-1.10	84.07	8.61	-15.78	2.65	-7.05	12.06	-3.70	-2.77	-2.50	-0.93	-10.55	-8.87	-1.08	18.95	22.09	-34.34	-0.47	2.83	1.49	-7.32	2.56	-1.55	-0.20	-0.68	7.95	-23.35	7.42	39.09	-1.03	1.63	0.60	0.50	2.40	0.11	4.93	-18.26	17.80	-1.98	-9.19	-7.21	-12.93	-11.24	-1.41	9.89	9.50	-35.59	1.82	-9.20	4.32	-4.51	-12.51	4.50
-6.94	4.72	6.38	-11.17	-1.24	83.75	8.52	-16.22	2.12	-6.90	12.22	-3.57	-2.09	-3.00	-0.72	-10.43	-9.52	-1.23	19.48	22.68	-35.77	-0.44	3.04	1.57	-8.72	2.60	-1.85	-0.44	-1.52	8.57	-22.39	8.18	36.96	-1.15	1.93	0.70	-0.95	2.40	-0.20	4.43	-17.81	20.72	-2.05	-9.18	-8.05	-11.78	-6.96	-0.41	9.49	10.68	-34.12	1.70	-9.21	2.97	-3.64	-12.18	4.62
-6.27	4.75	6.27	-10.79	-0.92	83.93	6.86	-15.89	1.73	-5.80	11.94	-4.32	-1.60	-3.24	-0.56	-9.76	-8.09	-1.22	20.45	20.32	-38.97	-0.13	3.04	1.51	-10.24	2.66	-2.16	0.69	-0.72	7.64	-22.48	7.00	34.14	-0.80	1.87	0.60	-2.99	2.41	-0.64	4.07	-16.67	20.12	-1.86	-9.19	-5.98	-13.56	-4.15	0.22	8.78	12.11	-33.80	1.64	-9.22	2.23	-3.02	-11.47	4.72
-5.45	4.82	6.17	-10.52	-0.36	84.73	4.29	-15.71	1.19	-4.14	11.63	-5.52	-1.27	-3.14	-0.44	-8.87	-6.47	-1.30	22.08	17.44	-41.55	-0.05	2.60	1.43	-9.38	2.63	-1.99	2.09	-0.48	6.53	-22.53	6.57	33.23	-0.14	1.28	0.28	-3.77	2.42	-0.81	3.51	-15.67	18.19	-1.73	-9.20	-4.55	-15.90	-2.23	0.84	7.99	13.28	-34.08	1.57	-9.22	1.48	-2.25	-10.16	4.84
-4.63	4.88	6.04	-10.46	-0.07	85.78	2.50	-15.76	0.56	-3.06	11.36	-6.51	-1.09	-2.90	-0.37	-8.61	-5.29	-1.37	24.09	14.95	-44.12	-0.05	1.52	1.44	-8.48	2.60	-1.80	3.02	-0.13	5.65	-22.81	6.37	35.84	0.10	0.39	0.11	-2.25	2.41	-0.48	3.27	-14.98	15.31	-1.66	-9.20	-3.71	-18.14	-0.28	1.62	7.48	14.22	-34.32	1.48	-9.21	0.43	-1.67	-8.37	4.94
-3.60	4.91	5.84	-10.23	-0.24	86.15	2.47	-15.79	0.38	-3.13	11.25	-6.77	-1.05	-2.66	-0.36	-8.93	-4.74	-1.23	25.36	13.31	-45.52	0.40	0.38	1.04	-6.44	2.54	-1.37	3.17	0.73	5.27	-23.39	6.02	38.83	0.04	-0.28	0.09	-0.25	2.40	-0.05	3.29	-13.93	13.33	-1.63	-9.20	-3.49	-18.03	1.43	2.17	7.01	15.44	-33.48	1.37	-9.21	-0.75	-0.98	-5.54	5.01
-2.90	4.95	5.56	-9.48	-0.40	85.89	2.78	-15.29	0.63	-3.27	11.07	-6.85	-1.15	-2.34	-0.38	-9.17	-3.92	-0.69	25.98	11.35	-45.61	0.98	-0.62	0.49	-4.46	2.50	-0.95	3.47	1.92	4.87	-24.27	5.13	39.87	0.00	-0.15	0.07	0.86	2.40	0.19	3.21	-13.77	13.53	-1.77	-6.05	-3.88	-17.13	1.91	2.19	5.96	17.11	-31.10	1.21	-9.20	-2.56	-0.27	-1.46	5.02
-1.65	4.99	5.25	-8.50	-0.57	85.45	3.08	-14.68	1.02	-3.15	11.03	-6.80	-1.35	-2.03	-0.44	-9.61	-3.07	-0.16	26.66	9.53	-44.06	1.31	-1.57	0.06	-2.59	2.48	-0.55	4.10	2.93	4.46	-25.29	4.46	41.34	-0.03	0.12	0.01	2.02	2.40	0.43	3.53	-15.84	14.45	-2.10	2.35	-4.35	-13.16	-0.56	1.04	4.52	18.78	-27.30	0.99	-9.18	-5.15	0.18	4.03	4.97
-0.81	5.05	4.94	-7.56	-0.84	85.31	3.32	-14.08	1.11	-2.90	11.06	-6.83	-1.41	-1.83	-0.46	-9.98	-2.18	0.27	27.07	7.71	-41.68	1.16	-2.43	0.03	-1.43	2.47	-0.30	4.91	3.86	4.05	-26.16	3.92	42.34	-0.27	0.76	0.10	2.42	2.41	0.52	3.19	-15.32	14.37	-2.17	5.34	-4.21	-10.13	-1.48	0.59	-1.46	9.74	-22.19	0.90	13.13	-7.87	1.59	0.73	4.81
-0.04	5.06	4.65	-7.20	-1.49	85.48	4.41	-14.13	0.58	-3.28	11.24	-6.50	-1.20	-1.62	-0.39	-10.23	-2.38	0.57	26.76	7.17	-39.27	0.71	-3.06	0.26	-0.69	2.46	-0.15	4.89	4.44	4.15	-26.38	3.91	42.43	-0.79	1.69	0.40	1.89	2.40	0.41	3.49	-15.12	14.43	-2.27	7.88	-4.52	-8.96	-2.91	0.28	-4.12	3.54	-21.45	0.82	25.88	-8.70	0.43	3.49	4.93
0.27	5.08	4.38	-6.33	-1.59	85.56	4.44	-12.80	0.02	-3.25	10.65	-6.41	-0.87	-1.45	-0.28	-10.71	-1.35	1.46	26.99	4.56	-37.24	0.41	-3.56	0.46	-23.36	3.46	-4.83	5.61	6.15	3.23	-26.84	1.73	41.53	-1.37	2.65	0.65	2.13	2.41	0.46	3.16	-13.62	15.17	-2.44	8.59	-5.66	-8.20	-3.54	0.15	-7.50	-2.92	-22.86	0.61	38.20	-8.47	-4.26	8.54	6.09
